# xmcd
#
# Track frame offsets: 
#        150
#        14147
#        39171
#        72723
#        90501
#        107079
#        117358
#        165507
#
# Disc length: 2323 seconds
#
# Revision: 0
# Processed by: cddbd v1.5.2PL0 Copyright (c) Steve Scherf et al.
# Submitted via: ExactAudioCopy v0.95b3
#
DISCID=65091108
DTITLE=Mott The Hoople  - Mott The Hoople - Mispress  FLAC
DYEAR=1900
DGENRE=
TTITLE0=You Really Got Me
TTITLE1=At the Crossroads
TTITLE2=Laugh At Me
TTITLE3=Road To Birmingham
TTITLE4=Backsliding Fearlessly
TTITLE5=Rabbit Foot and Toby Time
TTITLE6=Half Moon Bay
TTITLE7=Wrath and (W)Roll
EXTD=
EXTT0=
EXTT1=
EXTT2=
EXTT3=
EXTT4=
EXTT5=
EXTT6=
EXTT7=
PLAYORDER=
